<svg width="76" height="75" viewBox="0 0 76 75" fill="none" xmlns="http://www.w3.org/2000/svg">
<circle cx="53.5" cy="22.5" r="22.5" fill="#FFBA49"/>
<path d="M31.9997 16.3333C22.586 16.3333 14.3333 21.2236 9.58822 28.5885L5.33301 24.3333V37.6666H18.6663L13.4788 32.4791C17.1463 26.0297 24.0513 21.6666 31.9997 21.6666C43.781 21.6666 53.333 31.2186 53.333 43C53.333 54.7813 43.781 64.3333 31.9997 64.3333C30.4103 64.3333 28.8299 64.1591 27.2965 63.8125L26.1247 69.0156C28.042 69.4476 30.0183 69.6666 31.9997 69.6666C46.7277 69.6666 58.6663 57.728 58.6663 43C58.6663 28.272 46.7277 16.3333 31.9997 16.3333ZM31.234 27V29.875C30.33 29.9896 25.2705 30.9402 25.2705 37.0469C25.2705 45.9562 34.4945 43.3216 34.4945 49.2656C34.4945 52.2416 32.5688 52.3125 32.1768 52.3125C31.8194 52.3125 29.4736 52.5026 29.4736 47.9479H24.432C24.432 55.6599 30.027 56.2707 30.859 56.3854V59H33.5309V56.3854C34.4323 56.2734 39.5309 55.4371 39.5309 49.2291C39.5309 40.6798 30.3096 42.3156 30.307 37.0729C30.307 34.0676 31.96 33.9739 32.3174 33.9739C32.9707 33.9739 34.5257 34.547 34.5257 38.2083H39.5674C39.5674 31.203 34.7775 30.1106 33.9215 29.9479V27H31.234ZM5.33301 43L5.33822 43.4219C5.36755 45.4005 5.61647 47.3719 6.0778 49.2812L11.2653 48.0364C10.8946 46.5084 10.6955 44.9252 10.6715 43.3385L10.6663 43H5.33301ZM12.8747 52.4739L8.09863 54.8489C8.97863 56.6116 10.0538 58.287 11.3018 59.8177L15.4372 56.4531C14.4398 55.2264 13.5787 53.8873 12.8747 52.4739ZM18.8122 59.7708L15.5101 63.9583C17.0648 65.1823 18.7523 66.2353 20.5309 67.0833L22.8278 62.2708C21.4038 61.5908 20.0548 60.7495 18.8122 59.7708Z" fill="black"/>
</svg>
