<svg width="83" height="74" viewBox="0 0 83 74" fill="none" xmlns="http://www.w3.org/2000/svg">
<circle cx="60.5" cy="22.5" r="22.5" fill="#EF4358"/>
<path d="M31.9998 12.56C29.1762 12.56 26.8798 14.8563 26.8798 17.68C26.8798 20.5037 29.1762 22.8 31.9998 22.8C34.8235 22.8 37.1198 20.5037 37.1198 17.68C37.1198 14.8563 34.8235 12.56 31.9998 12.56ZM8.95984 24.08C6.13616 24.08 3.83984 26.3763 3.83984 29.2C3.83984 32.0237 6.13616 34.32 8.95984 34.32C11.7835 34.32 14.0798 32.0237 14.0798 29.2C14.0798 26.3763 11.7835 24.08 8.95984 24.08ZM55.0398 24.08C52.2162 24.08 49.9198 26.3763 49.9198 29.2C49.9198 32.0237 52.2162 34.32 55.0398 34.32C57.8635 34.32 60.1598 32.0237 60.1598 29.2C60.1598 26.3763 57.8635 24.08 55.0398 24.08ZM30.7198 25.245V34.4375C31.1371 34.3658 31.5634 34.32 31.9998 34.32C32.4363 34.32 32.8626 34.3646 33.2798 34.435V25.245C32.8626 25.3154 32.4363 25.36 31.9998 25.36C31.5634 25.36 31.1371 25.3154 30.7198 25.245ZM47.8048 31.7525L37.9898 37.2075C38.5236 37.8731 38.9431 38.6271 39.2323 39.445L49.0473 33.9925C48.5149 33.3282 48.0954 32.5704 47.8048 31.7525ZM16.1873 31.7775C15.8942 32.5929 15.4724 33.347 14.9373 34.01L24.7348 39.53C25.0152 38.7082 25.43 37.9494 25.9548 37.28L16.1873 31.7775ZM31.9998 36.88C29.1774 36.88 26.8798 39.1776 26.8798 42C26.8798 44.8224 29.1774 47.12 31.9998 47.12C34.8222 47.12 37.1198 44.8224 37.1198 42C37.1198 39.1776 34.8222 36.88 31.9998 36.88ZM24.7523 44.515L14.9448 49.9975C15.4786 50.6618 15.8993 51.4184 16.1898 52.235L25.9848 46.76C25.4562 46.0931 25.0378 45.3342 24.7523 44.515ZM39.2098 44.62C39.0614 45.027 38.8835 45.4163 38.6723 45.7875C38.6711 45.7901 38.6686 45.7937 38.6673 45.7975C38.4561 46.1674 38.2174 46.5173 37.9498 46.845L47.7998 52.26C48.0878 51.4434 48.5086 50.6856 49.0398 50.02L39.2098 44.62ZM30.7198 49.565V58.7575C31.1371 58.6871 31.5634 58.6425 31.9998 58.6425C32.4363 58.6425 32.8626 58.6871 33.2798 58.7575V49.565C32.8626 49.6354 32.4363 49.68 31.9998 49.68C31.5634 49.68 31.1371 49.6354 30.7198 49.565ZM8.95984 49.68C6.13616 49.68 3.83984 51.9763 3.83984 54.8C3.83984 57.6237 6.13616 59.92 8.95984 59.92C11.7835 59.92 14.0798 57.6237 14.0798 54.8C14.0798 51.9763 11.7835 49.68 8.95984 49.68ZM55.0398 49.68C52.2162 49.68 49.9198 51.9763 49.9198 54.8C49.9198 57.6237 52.2162 59.92 55.0398 59.92C57.8635 59.92 60.1598 57.6237 60.1598 54.8C60.1598 51.9763 57.8635 49.68 55.0398 49.68ZM31.9998 61.2C29.1762 61.2 26.8798 63.4963 26.8798 66.32C26.8798 69.1437 29.1762 71.44 31.9998 71.44C34.8235 71.44 37.1198 69.1437 37.1198 66.32C37.1198 63.4963 34.8235 61.2 31.9998 61.2Z" fill="black"/>
</svg>
