<svg width="84" height="77" viewBox="0 0 84 77" fill="none" xmlns="http://www.w3.org/2000/svg">
<circle cx="22.5" cy="22.5" r="22.5" fill="#53ACFF"/>
<g clip-path="url(#clip0)">
<path d="M52.4883 15.5001C44.8908 15.5001 38.447 19.5088 35.2295 26.0938C33.581 25.0558 31.5924 24.5001 29.4609 24.5001C24.0054 24.5001 19.8374 28.6501 19.5029 34.2676C12.8099 36.5311 9 41.8402 9 48.9952C9 56.1367 14.1945 62.0776 21 63.2686V60.2159C15.858 59.0684 12 54.4762 12 48.9952C12 40.6612 17.8899 37.7913 21.4014 36.8223L22.541 36.5089L22.4795 35.0001C22.4795 30.7236 25.4829 27.5001 29.4609 27.5001C31.5714 27.5001 33.4599 28.2251 34.7754 29.5421L36.4307 31.2003L37.2422 29.0059C39.6422 22.5259 45.4833 18.4971 52.4883 18.4971C61.7463 18.4986 69 25.7481 69 35.0001C69 35.6196 68.9539 36.2808 68.8564 37.0743L68.7363 38.753H70.4326C75.9646 38.753 81 44.184 81 50.1495C81 55.398 77.07 59.7345 72 60.4005V63.4297C78.7305 62.7487 84 57.0525 84 50.1465C84 43.0545 78.5796 36.7687 71.9766 35.8672C71.9931 35.5702 72 35.2821 72 35.0001C72 24.0651 63.4293 15.5001 52.4883 15.5001ZM28.5 47.0001C28.1022 47.0001 27.7206 47.1581 27.4393 47.4394C27.158 47.7207 27 48.1022 27 48.5001C27 48.8979 27.158 49.2794 27.4393 49.5607C27.7206 49.842 28.1022 50.0001 28.5 50.0001C28.8978 50.0001 29.2794 49.842 29.5607 49.5607C29.842 49.2794 30 48.8979 30 48.5001C30 48.1022 29.842 47.7207 29.5607 47.4394C29.2794 47.1581 28.8978 47.0001 28.5 47.0001ZM64.5 47.0001C64.1022 47.0001 63.7206 47.1581 63.4393 47.4394C63.158 47.7207 63 48.1022 63 48.5001C63 48.8979 63.158 49.2794 63.4393 49.5607C63.7206 49.842 64.1022 50.0001 64.5 50.0001C64.8978 50.0001 65.2794 49.842 65.5607 49.5607C65.842 49.2794 66 48.8979 66 48.5001C66 48.1022 65.842 47.7207 65.5607 47.4394C65.2794 47.1581 64.8978 47.0001 64.5 47.0001ZM46.5 48.5001C40.7185 48.5001 36 53.2186 36 59.0001C36 62.4932 37.8646 65.4365 40.5 67.3438V71.0001C40.5 73.0561 41.9183 74.7935 43.8164 75.3214C44.3057 76.3133 45.3186 77.0001 46.5 77.0001C47.6814 77.0001 48.6943 76.3133 49.1836 75.3214C51.0817 74.7935 52.5 73.0561 52.5 71.0001V67.3438C55.1354 65.4365 57 62.4932 57 59.0001C57 53.2186 52.2815 48.5001 46.5 48.5001ZM33 50.0001C32.6022 50.0001 32.2206 50.1581 31.9393 50.4394C31.658 50.7207 31.5 51.1022 31.5 51.5001C31.5 51.8979 31.658 52.2794 31.9393 52.5607C32.2206 52.842 32.6022 53.0001 33 53.0001C33.3978 53.0001 33.7794 52.842 34.0607 52.5607C34.342 52.2794 34.5 51.8979 34.5 51.5001C34.5 51.1022 34.342 50.7207 34.0607 50.4394C33.7794 50.1581 33.3978 50.0001 33 50.0001V50.0001ZM60 50.0001C59.6022 50.0001 59.2206 50.1581 58.9393 50.4394C58.658 50.7207 58.5 51.1022 58.5 51.5001C58.5 51.8979 58.658 52.2794 58.9393 52.5607C59.2206 52.842 59.6022 53.0001 60 53.0001C60.3978 53.0001 60.7794 52.842 61.0607 52.5607C61.342 52.2794 61.5 51.8979 61.5 51.5001C61.5 51.1022 61.342 50.7207 61.0607 50.4394C60.7794 50.1581 60.3978 50.0001 60 50.0001V50.0001ZM46.5 51.5001C50.6605 51.5001 54 54.8396 54 59.0001C54 61.4681 52.8119 63.6343 50.9824 65.0001H46.5V68.0001H49.5V71.0001C49.5 71.8476 48.8475 72.5001 48 72.5001H45C44.1525 72.5001 43.5 71.8476 43.5 71.0001V65.9229L42.7529 65.4893C40.5108 64.1906 39 61.7859 39 59.0001C39 54.8396 42.3395 51.5001 46.5 51.5001ZM25.5 57.5001C25.1022 57.5001 24.7206 57.6581 24.4393 57.9394C24.158 58.2207 24 58.6022 24 59.0001C24 59.3979 24.158 59.7794 24.4393 60.0607C24.7206 60.342 25.1022 60.5001 25.5 60.5001C25.8978 60.5001 26.2794 60.342 26.5607 60.0607C26.842 59.7794 27 59.3979 27 59.0001C27 58.6022 26.842 58.2207 26.5607 57.9394C26.2794 57.6581 25.8978 57.5001 25.5 57.5001ZM31.5 57.5001C31.1022 57.5001 30.7206 57.6581 30.4393 57.9394C30.158 58.2207 30 58.6022 30 59.0001C30 59.3979 30.158 59.7794 30.4393 60.0607C30.7206 60.342 31.1022 60.5001 31.5 60.5001C31.8978 60.5001 32.2794 60.342 32.5607 60.0607C32.842 59.7794 33 59.3979 33 59.0001C33 58.6022 32.842 58.2207 32.5607 57.9394C32.2794 57.6581 31.8978 57.5001 31.5 57.5001ZM61.5 57.5001C61.1022 57.5001 60.7206 57.6581 60.4393 57.9394C60.158 58.2207 60 58.6022 60 59.0001C60 59.3979 60.158 59.7794 60.4393 60.0607C60.7206 60.342 61.1022 60.5001 61.5 60.5001C61.8978 60.5001 62.2794 60.342 62.5607 60.0607C62.842 59.7794 63 59.3979 63 59.0001C63 58.6022 62.842 58.2207 62.5607 57.9394C62.2794 57.6581 61.8978 57.5001 61.5 57.5001ZM67.5 57.5001C67.1022 57.5001 66.7206 57.6581 66.4393 57.9394C66.158 58.2207 66 58.6022 66 59.0001C66 59.3979 66.158 59.7794 66.4393 60.0607C66.7206 60.342 67.1022 60.5001 67.5 60.5001C67.8978 60.5001 68.2794 60.342 68.5607 60.0607C68.842 59.7794 69 59.3979 69 59.0001C69 58.6022 68.842 58.2207 68.5607 57.9394C68.2794 57.6581 67.8978 57.5001 67.5 57.5001ZM33 65.0001C32.6022 65.0001 32.2206 65.1581 31.9393 65.4394C31.658 65.7207 31.5 66.1022 31.5 66.5001C31.5 66.8979 31.658 67.2794 31.9393 67.5607C32.2206 67.842 32.6022 68.0001 33 68.0001C33.3978 68.0001 33.7794 67.842 34.0607 67.5607C34.342 67.2794 34.5 66.8979 34.5 66.5001C34.5 66.1022 34.342 65.7207 34.0607 65.4394C33.7794 65.1581 33.3978 65.0001 33 65.0001ZM60 65.0001C59.6022 65.0001 59.2206 65.1581 58.9393 65.4394C58.658 65.7207 58.5 66.1022 58.5 66.5001C58.5 66.8979 58.658 67.2794 58.9393 67.5607C59.2206 67.842 59.6022 68.0001 60 68.0001C60.3978 68.0001 60.7794 67.842 61.0607 67.5607C61.342 67.2794 61.5 66.8979 61.5 66.5001C61.5 66.1022 61.342 65.7207 61.0607 65.4394C60.7794 65.1581 60.3978 65.0001 60 65.0001ZM28.5 68.0001C28.1022 68.0001 27.7206 68.1581 27.4393 68.4394C27.158 68.7207 27 69.1022 27 69.5001C27 69.8979 27.158 70.2794 27.4393 70.5607C27.7206 70.842 28.1022 71.0001 28.5 71.0001C28.8978 71.0001 29.2794 70.842 29.5607 70.5607C29.842 70.2794 30 69.8979 30 69.5001C30 69.1022 29.842 68.7207 29.5607 68.4394C29.2794 68.1581 28.8978 68.0001 28.5 68.0001ZM64.5 68.0001C64.1022 68.0001 63.7206 68.1581 63.4393 68.4394C63.158 68.7207 63 69.1022 63 69.5001C63 69.8979 63.158 70.2794 63.4393 70.5607C63.7206 70.842 64.1022 71.0001 64.5 71.0001C64.8978 71.0001 65.2794 70.842 65.5607 70.5607C65.842 70.2794 66 69.8979 66 69.5001C66 69.1022 65.842 68.7207 65.5607 68.4394C65.2794 68.1581 64.8978 68.0001 64.5 68.0001Z" fill="black"/>
</g>
<defs>
<clipPath id="clip0">
<rect width="75" height="75" fill="white" transform="translate(9 2)"/>
</clipPath>
</defs>
</svg>
