<svg width="32" height="22" viewBox="0 0 32 22" fill="none" xmlns="http://www.w3.org/2000/svg">
<path d="M11.6307 21.9972C11.9796 21.936 12.2594 21.6841 12.3576 21.3493C12.4557 21.011 12.3539 20.6511 12.0959 20.4135L3.54735 11.9479L31.0248 11.9479C31.0539 11.9479 31.0829 11.9479 31.112 11.9479C31.6245 11.9227 32.0243 11.4908 31.9988 10.9833C31.9734 10.4758 31.5373 10.0799 31.0248 10.1051L3.54735 10.1051L12.0959 1.63945C12.3721 1.41629 12.4993 1.05996 12.4194 0.714424C12.3394 0.372488 12.0668 0.102539 11.7215 0.0233536C11.3726 -0.0558319 11.0128 0.0701447 10.7874 0.343693L0.639687 10.3642L0 11.0265L0.639687 11.6888L10.7874 21.7093C10.9801 21.9144 11.2599 22.0188 11.5434 21.9972C11.5725 21.9972 11.6016 21.9972 11.6307 21.9972Z" fill="#76B2FB"/>
</svg>
