<svg width="32" height="22" viewBox="0 0 32 22" fill="none" xmlns="http://www.w3.org/2000/svg">
<path d="M20.3693 0.00279259C20.0204 0.0639808 19.7406 0.315934 19.6424 0.65067C19.5443 0.989007 19.6461 1.34894 19.9041 1.58649L28.4526 10.0521H0.975218C0.946141 10.0521 0.917065 10.0521 0.887988 10.0521C0.375512 10.0773 -0.0242921 10.5092 0.00115016 11.0167C0.0265925 11.5242 0.462742 11.9201 0.975218 11.8949H28.4526L19.9041 20.3606C19.6279 20.5837 19.5007 20.94 19.5806 21.2856C19.6606 21.6275 19.9332 21.8975 20.2785 21.9766C20.6274 22.0558 20.9872 21.9299 21.2126 21.6563L31.3603 11.6358L32 10.9735L31.3603 10.3112L21.2126 0.290738C21.0199 0.0855772 20.7401 -0.0188029 20.4566 0.00279259C20.4275 0.00279259 20.3984 0.00279259 20.3693 0.00279259Z" fill="#76B2FB"/>
</svg>
