<svg width="33" height="33" viewBox="0 0 33 33" fill="none" xmlns="http://www.w3.org/2000/svg">
<path d="M16.2344 0.75C7.39829 0.75 0.234375 7.91392 0.234375 16.75C0.234375 24.7348 6.08456 31.3531 13.7349 32.558V21.3761H9.67052V16.75H13.7349V13.2248C13.7349 9.21165 16.124 6.99862 19.7771 6.99862C21.5277 6.99862 23.3615 7.31066 23.3615 7.31066V11.2454H21.3389C19.3547 11.2454 18.7338 12.4808 18.7338 13.7465V16.7468H23.1679L22.459 21.3729H18.7338V32.5548C26.3842 31.3563 32.2344 24.7364 32.2344 16.75C32.2344 7.91392 25.0705 0.75 16.2344 0.75V0.75Z" fill="#1679F1"/>
</svg>
