<svg width="32" height="33" viewBox="0 0 32 33" fill="none" xmlns="http://www.w3.org/2000/svg">
<path d="M15.996 11.4144C13.058 11.4144 10.6604 13.812 10.6604 16.75C10.6604 19.688 13.058 22.0856 15.996 22.0856C18.934 22.0856 21.3316 19.688 21.3316 16.75C21.3316 13.812 18.934 11.4144 15.996 11.4144ZM31.9988 16.75C31.9988 14.5405 32.0188 12.351 31.8947 10.1455C31.7707 7.58381 31.1863 5.31027 29.313 3.43701C27.4357 1.55974 25.1662 0.979345 22.6045 0.855261C20.395 0.731177 18.2055 0.751191 16 0.751191C13.7905 0.751191 11.601 0.731177 9.39554 0.855261C6.83381 0.979345 4.56027 1.56374 2.68701 3.43701C0.809737 5.31427 0.229345 7.58381 0.105261 10.1455C-0.018823 12.355 0.00119058 14.5445 0.00119058 16.75C0.00119058 18.9555 -0.018823 21.149 0.105261 23.3545C0.229345 25.9162 0.81374 28.1897 2.68701 30.063C4.56427 31.9403 6.83381 32.5207 9.39554 32.6447C11.605 32.7688 13.7945 32.7488 16 32.7488C18.2095 32.7488 20.399 32.7688 22.6045 32.6447C25.1662 32.5207 27.4397 31.9363 29.313 30.063C31.1903 28.1857 31.7707 25.9162 31.8947 23.3545C32.0228 21.149 31.9988 18.9595 31.9988 16.75V16.75ZM15.996 24.9595C11.4529 24.9595 7.78645 21.2931 7.78645 16.75C7.78645 12.2069 11.4529 8.54045 15.996 8.54045C20.5391 8.54045 24.2055 12.2069 24.2055 16.75C24.2055 21.2931 20.5391 24.9595 15.996 24.9595ZM24.5418 10.1215C23.4811 10.1215 22.6245 9.26494 22.6245 8.20423C22.6245 7.14351 23.4811 6.28693 24.5418 6.28693C25.6025 6.28693 26.4591 7.14351 26.4591 8.20423C26.4594 8.4561 26.41 8.70556 26.3138 8.93832C26.2175 9.17108 26.0763 9.38256 25.8982 9.56066C25.7201 9.73876 25.5086 9.87998 25.2759 9.97622C25.0431 10.0725 24.7936 10.1218 24.5418 10.1215V10.1215Z" fill="#FF5A26"/>
</svg>
