<svg width="35" height="27" viewBox="0 0 35 27" fill="none" xmlns="http://www.w3.org/2000/svg">
<path d="M34.023 5.2162C33.6995 3.43035 32.1579 2.12983 30.3689 1.72381C27.6917 1.15602 22.737 0.75 17.3763 0.75C12.0188 0.75 6.98477 1.15602 4.30442 1.72381C2.51858 2.12983 0.973808 3.34788 0.650263 5.2162C0.323546 7.24628 0 10.0884 0 13.7426C0 17.3967 0.323546 20.2389 0.729564 22.2689C1.05628 24.0548 2.59788 25.3553 4.38372 25.7613C7.22585 26.3291 12.0981 26.7351 17.4588 26.7351C22.8195 26.7351 27.6917 26.3291 30.5338 25.7613C32.3196 25.3553 33.8612 24.1373 34.188 22.2689C34.5115 20.2389 34.9175 17.3143 35 13.7426C34.8351 10.0884 34.429 7.24628 34.023 5.2162ZM12.9926 19.4268V8.05832L22.8988 13.7426L12.9926 19.4268Z" fill="#EF4358"/>
</svg>
