<svg width="162" height="355" viewBox="0 0 162 355" fill="none" xmlns="http://www.w3.org/2000/svg">
<circle cx="158.764" cy="352.351" r="2.64716" transform="rotate(-180 158.764 352.351)" fill="#1679F1"/>
<circle cx="119.939" cy="352.351" r="2.64716" transform="rotate(-180 119.939 352.351)" fill="#1679F1"/>
<circle cx="81.1136" cy="352.351" r="2.64716" transform="rotate(-180 81.1136 352.351)" fill="#1679F1"/>
<circle cx="42.2894" cy="352.351" r="2.64716" transform="rotate(-180 42.2894 352.351)" fill="#1679F1"/>
<circle cx="3.46417" cy="352.351" r="2.64716" transform="rotate(-180 3.46417 352.351)" fill="#1679F1"/>
<circle cx="158.764" cy="313.526" r="2.64716" transform="rotate(-180 158.764 313.526)" fill="#1679F1"/>
<circle cx="119.939" cy="313.526" r="2.64716" transform="rotate(-180 119.939 313.526)" fill="#1679F1"/>
<circle cx="81.1136" cy="313.526" r="2.64716" transform="rotate(-180 81.1136 313.526)" fill="#1679F1"/>
<circle cx="42.2894" cy="313.526" r="2.64716" transform="rotate(-180 42.2894 313.526)" fill="#1679F1"/>
<circle cx="3.46417" cy="313.526" r="2.64716" transform="rotate(-180 3.46417 313.526)" fill="#1679F1"/>
<circle cx="158.764" cy="274.701" r="2.64716" transform="rotate(-180 158.764 274.701)" fill="#1679F1"/>
<circle cx="119.939" cy="274.701" r="2.64716" transform="rotate(-180 119.939 274.701)" fill="#1679F1"/>
<circle cx="81.1136" cy="274.701" r="2.64716" transform="rotate(-180 81.1136 274.701)" fill="#1679F1"/>
<circle cx="42.2894" cy="274.701" r="2.64716" transform="rotate(-180 42.2894 274.701)" fill="#1679F1"/>
<circle cx="3.46417" cy="274.701" r="2.64716" transform="rotate(-180 3.46417 274.701)" fill="#1679F1"/>
<circle cx="158.764" cy="235.876" r="2.64716" transform="rotate(-180 158.764 235.876)" fill="#1679F1"/>
<circle cx="119.939" cy="235.876" r="2.64716" transform="rotate(-180 119.939 235.876)" fill="#1679F1"/>
<circle cx="81.1136" cy="235.876" r="2.64716" transform="rotate(-180 81.1136 235.876)" fill="#1679F1"/>
<circle cx="42.2894" cy="235.876" r="2.64716" transform="rotate(-180 42.2894 235.876)" fill="#1679F1"/>
<circle cx="3.46417" cy="235.876" r="2.64716" transform="rotate(-180 3.46417 235.876)" fill="#1679F1"/>
<circle cx="158.764" cy="197.051" r="2.64716" transform="rotate(-180 158.764 197.051)" fill="#1679F1"/>
<circle cx="119.939" cy="197.051" r="2.64716" transform="rotate(-180 119.939 197.051)" fill="#1679F1"/>
<circle cx="81.1136" cy="197.051" r="2.64716" transform="rotate(-180 81.1136 197.051)" fill="#1679F1"/>
<circle cx="42.2894" cy="197.051" r="2.64716" transform="rotate(-180 42.2894 197.051)" fill="#1679F1"/>
<circle cx="3.46417" cy="197.051" r="2.64716" transform="rotate(-180 3.46417 197.051)" fill="#1679F1"/>
<circle cx="158.764" cy="158.226" r="2.64716" transform="rotate(-180 158.764 158.226)" fill="#1679F1"/>
<circle cx="119.939" cy="158.226" r="2.64716" transform="rotate(-180 119.939 158.226)" fill="#1679F1"/>
<circle cx="81.1136" cy="158.226" r="2.64716" transform="rotate(-180 81.1136 158.226)" fill="#1679F1"/>
<circle cx="42.2894" cy="158.226" r="2.64716" transform="rotate(-180 42.2894 158.226)" fill="#1679F1"/>
<circle cx="3.46417" cy="158.226" r="2.64716" transform="rotate(-180 3.46417 158.226)" fill="#1679F1"/>
<circle cx="158.764" cy="119.401" r="2.64716" transform="rotate(-180 158.764 119.401)" fill="#1679F1"/>
<circle cx="119.939" cy="119.401" r="2.64716" transform="rotate(-180 119.939 119.401)" fill="#1679F1"/>
<circle cx="81.1136" cy="119.401" r="2.64716" transform="rotate(-180 81.1136 119.401)" fill="#1679F1"/>
<circle cx="42.2894" cy="119.401" r="2.64716" transform="rotate(-180 42.2894 119.401)" fill="#1679F1"/>
<circle cx="3.46417" cy="119.401" r="2.64716" transform="rotate(-180 3.46417 119.401)" fill="#1679F1"/>
<circle cx="158.764" cy="80.5764" r="2.64716" transform="rotate(-180 158.764 80.5764)" fill="#1679F1"/>
<circle cx="119.939" cy="80.5764" r="2.64716" transform="rotate(-180 119.939 80.5764)" fill="#1679F1"/>
<circle cx="81.1136" cy="80.5764" r="2.64716" transform="rotate(-180 81.1136 80.5764)" fill="#1679F1"/>
<circle cx="42.2894" cy="80.5764" r="2.64716" transform="rotate(-180 42.2894 80.5764)" fill="#1679F1"/>
<circle cx="3.46417" cy="80.5764" r="2.64716" transform="rotate(-180 3.46417 80.5764)" fill="#1679F1"/>
<circle cx="158.764" cy="41.7514" r="2.64716" transform="rotate(-180 158.764 41.7514)" fill="#1679F1"/>
<circle cx="119.939" cy="41.7513" r="2.64716" transform="rotate(-180 119.939 41.7513)" fill="#1679F1"/>
<circle cx="81.1136" cy="41.7513" r="2.64716" transform="rotate(-180 81.1136 41.7513)" fill="#1679F1"/>
<circle cx="42.2894" cy="41.7513" r="2.64716" transform="rotate(-180 42.2894 41.7513)" fill="#1679F1"/>
<circle cx="3.46417" cy="41.7513" r="2.64716" transform="rotate(-180 3.46417 41.7513)" fill="#1679F1"/>
<circle cx="158.764" cy="2.92633" r="2.64716" transform="rotate(-180 158.764 2.92633)" fill="#1679F1"/>
<circle cx="119.939" cy="2.92633" r="2.64716" transform="rotate(-180 119.939 2.92633)" fill="#1679F1"/>
<circle cx="81.1136" cy="2.92633" r="2.64716" transform="rotate(-180 81.1136 2.92633)" fill="#1679F1"/>
<circle cx="42.2894" cy="2.92633" r="2.64716" transform="rotate(-180 42.2894 2.92633)" fill="#1679F1"/>
<circle cx="3.46417" cy="2.92633" r="2.64716" transform="rotate(-180 3.46417 2.92633)" fill="#1679F1"/>
</svg>
